<svg width="32" height="32" viewBox="0 0 32 32" fill="none" xmlns="http://www.w3.org/2000/svg">
<path d="M14 0H20V2H22V4H24V6H26V8H28V10H30V12H32V18H30V30H2V18H0V14H2V12H4V10H6V8H8V6H10V4H12V2H14V0Z" fill="#1A1A1A"/>
<path d="M16 6H18V8H16V6Z" fill="white"/>
<path d="M14 8H16V10H14V8Z" fill="white"/>
<path d="M16 8H18V10H16V8Z" fill="#1A1A1A"/>
<path d="M18 8H20V10H18V8Z" fill="white"/>
<path d="M12 10H14V14H20V10H22V12H24V14H26V16H20V28H4V18H6V26H16V16H8V14H10V12H12V10Z" fill="white"/>
<path d="M14 10H16V12H18V10H20V14H14V10Z" fill="#1A1A1A"/>
<path d="M16 10H18V12H16V10Z" fill="white"/>
<path d="M26 16H28V28H26V16Z" fill="white"/>
<path d="M8 18H10V20H8V18Z" fill="white"/>
<path d="M12 18H14V20H12V18Z" fill="white"/>
<path d="M22 18H24V20H22V18Z" fill="white"/>
<path d="M8 22H10V24H8V22Z" fill="white"/>
<path d="M12 22H14V24H12V22Z" fill="white"/>
<path d="M22 22H24V28H22V22Z" fill="white"/>
</svg>
