<svg width="32" height="32" viewBox="0 0 32 32" fill="none" xmlns="http://www.w3.org/2000/svg">
<path d="M22 4H28V8H30V10H24V12H22V14H24V20H22V22H16V20H14V14H16V12H14V10H10V14H2V26H14V24H24V26H30V10H32V28H0V8H22V4Z" fill="#1A1A1A"/>
<path d="M12 12H14V14H12V12Z" fill="#1A1A1A"/>
<path d="M24 12H26V14H24V12Z" fill="#1A1A1A"/>
<path d="M10 14H12V22H10V14Z" fill="#1A1A1A"/>
<path d="M26 14H28V22H26V14Z" fill="#1A1A1A"/>
<path d="M12 22H14V24H12V22Z" fill="#1A1A1A"/>
<path d="M24 22H26V24H24V22Z" fill="#1A1A1A"/>
</svg>
