<svg width="32" height="32" viewBox="0 0 32 32" fill="none" xmlns="http://www.w3.org/2000/svg">
<path d="M2 0H10V2H12V6H20V2H22V0H30V2H24V4H22V8H20V12H18V8H14V12H12V8H10V4H8V2H2V0Z" fill="#1A1A1A"/>
<path d="M0 2H2V8H0V2Z" fill="#1A1A1A"/>
<path d="M30 2H32V8H30V2Z" fill="#1A1A1A"/>
<path d="M4 4H6V6H8V10H6V8H4V4Z" fill="#1A1A1A"/>
<path d="M24 4H28V8H24V4Z" fill="#1A1A1A"/>
<path d="M2 8H4V10H2V8Z" fill="#1A1A1A"/>
<path d="M28 8H30V10H28V8Z" fill="#1A1A1A"/>
<path d="M4 10H6V12H4V10Z" fill="#1A1A1A"/>
<path d="M26 10H28V12H26V10Z" fill="#1A1A1A"/>
<path d="M2 12H4V16H2V12Z" fill="#1A1A1A"/>
<path d="M28 12H30V16H28V12Z" fill="#1A1A1A"/>
<path d="M12 14H14V16H12V14Z" fill="#1A1A1A"/>
<path d="M16 14H18V16H16V14Z" fill="#1A1A1A"/>
<path d="M0 16H2V24H0V16Z" fill="#1A1A1A"/>
<path d="M4 16H8V18H4V16Z" fill="#1A1A1A"/>
<path d="M24 16H28V18H24V16Z" fill="#1A1A1A"/>
<path d="M30 16H32V24H30V16Z" fill="#1A1A1A"/>
<path d="M8 18H10V20H8V18Z" fill="#1A1A1A"/>
<path d="M12 18H18V20H16V22H14V20H12V18Z" fill="#1A1A1A"/>
<path d="M22 18H24V20H22V18Z" fill="#1A1A1A"/>
<path d="M4 20H8V22H4V20Z" fill="#1A1A1A"/>
<path d="M24 20H28V22H24V20Z" fill="#1A1A1A"/>
<path d="M10 22H12V24H10V22Z" fill="#1A1A1A"/>
<path d="M18 22H20V24H18V22Z" fill="#1A1A1A"/>
<path d="M2 24H4V26H2V24Z" fill="#1A1A1A"/>
<path d="M12 24H18V26H12V24Z" fill="#1A1A1A"/>
<path d="M26 24H30V26H26V24Z" fill="#1A1A1A"/>
<path d="M4 26H8V28H4V26Z" fill="#1A1A1A"/>
<path d="M22 26H26V28H22V26Z" fill="#1A1A1A"/>
<path d="M8 28H22V30H8V28Z" fill="#1A1A1A"/>
</svg>
