<svg width="90" height="90" viewBox="0 0 90 90" fill="none" xmlns="http://www.w3.org/2000/svg">
<g opacity="0.8">
<path d="M30.4114 82.5825H33.5034H40.1916V90.0001H23.5269V86.0441H30.4114V82.5825Z" fill="#FFCFBA"/>
<path d="M56.8338 82.5825H53.7417H47.0536V90.0001H63.7183V86.0441H56.8338V82.5825Z" fill="#FFCFBA"/>
<path d="M5.905 50.9341V56.3736H0V45.989H2.94108V48.4615H6.37206V45.989H11.7636V48.2827V50.9341H5.905Z" fill="white"/>
<path d="M81.3401 50.9341V56.3736H87.2451V45.989H84.3041V48.4615H80.8731V45.989H75.4815V48.2827V50.9341H81.3401Z" fill="white"/>
<path d="M49.4056 52.4176C49.4056 54.4597 50.6298 56.2158 52.3843 56.9922C52.6236 58.9314 53.9731 60.5267 55.7774 61.1225V63.7912C55.7774 65.2623 56.4127 66.5851 57.424 67.5C56.4127 68.4149 55.7774 69.7377 55.7774 71.2088V73.383C53.9517 73.9859 52.5916 75.6121 52.3763 77.5824H43.5363H43.4789H34.8687C34.6534 75.6121 33.2932 73.9859 31.4676 73.383V71.2088C31.4676 69.7377 30.8323 68.4149 29.821 67.5C30.8323 66.5851 31.4676 65.2623 31.4676 63.7912V61.1225C33.2718 60.5267 34.6214 58.9314 34.8607 56.9922C36.6152 56.2158 37.8394 54.4597 37.8394 52.4176V50.989H43.5672H49.4056V52.4176Z" fill="#FFCFBA" stroke="#FF9567" stroke-width="10" stroke-linejoin="round"/>
<path d="M64.2084 63.7913H60.7774H26.4676H23.0366V67.3347V71.2088H26.4676V78.1319H29.8986V82.5825H32.8751H43.4789H43.5363H54.1401H57.3464V78.1319H60.7774V71.2088H64.2084V67.3347V63.7913Z" fill="white"/>
<path d="M32.8638 52.4363V45.989L29.0788 45.989H17.736H11.7635V50.9597H5.88184V56.3737L10.1782 56.3737H26.611H29.8987V52.4363H32.8638Z" fill="#FFCFBA"/>
<path d="M57.3465 56.3737V52.4363H54.4057V45.989L58.0941 45.989H69.927H75.4817V50.9597L81.3634 50.9597V56.3737L60.5619 56.3737H57.3465Z" fill="#FFCFBA"/>
<path d="M40.1917 18.2966V21.2637H46.5635V18.2966H54.8959V21.2637H57.8367V25.7142H60.7776V28.6812H57.8367V31.6483H60.7776V39.5604H57.8367V43.0219H54.4673H32.6344H29.4086V39.5604H26.4678V31.6483H29.4086V29.1758H26.4678V25.7142H29.4086V21.2637H32.3495V18.2966H40.1917Z" fill="#FFCFBA"/>
<path d="M32.8396 31.6483V28.6812H36.2705V31.6483H50.9747V28.6812H54.4057V31.6483H50.9747V34.6765H36.2705V31.6483H32.8396Z" fill="#FF9567"/>
<path d="M29.4086 25.7142V21.2637H26.4677V25.7142H29.4086Z" fill="#FF9567"/>
<path d="M53.9198 43.0219H33.3297V45.9889H53.9198V43.0219Z" fill="#FF9567"/>
<path d="M68.1296 21.2637H64.6987V36.5933H68.1296V32.1428H71.0705V25.7142H68.1296V21.2637Z" fill="#FF9567"/>
<path d="M19.1156 21.2637H22.5466V36.5933H19.1156V32.1428H16.1748V25.7142H19.1156V21.2637Z" fill="#FF9567"/>
<path d="M60.7775 25.7142V21.2637H57.8367V25.7142H60.7775Z" fill="#FF9567"/>
<path d="M49.0184 18.2966H38.2311V21.2637H49.0184V18.2966Z" fill="#FF9567"/>
<path d="M36.2703 31.6484H32.9618H29.8984V39.066H32.8393V43.0221H54.4071V39.066H57.3463V31.6484H54.4071H50.9744V36.099H36.2703V31.6484Z" fill="#E52521"/>
<path d="M36.2705 21.4692H40.6818L40.7105 28.3923H36.2992L36.2705 21.4692Z" fill="black"/>
<path d="M46.5634 28.3923V21.4692H50.9747V28.3923H46.5634Z" fill="black"/>
<path d="M29.6619 14.8352H26.4678V7.91209H29.8988V3.46154H32.7867H36.7607V0H50.4846V3.46154H54.4587H57.3466V7.91209H60.7776V14.8352H57.5834H29.6619Z" fill="#E52521"/>
<path d="M29.4083 21.2638H26.4675V28.6813H29.8985V31.673H26.4675V36.5934H22.5464V21.2638H26.4675V14.8395H29.8985V11.3736H32.8393V7.91211H54.4055V11.3736H57.3463V14.8395H60.7773V21.2638H64.6984V36.5934H60.7773V31.673H57.3463V28.6813H60.7773V21.2638H57.3463H53.9153V18.2967H46.7651H39.9996H33.3295V21.2638H29.4083Z" fill="black"/>
<path d="M38.7212 7.9121V3.95605H48.524V7.9121H38.7212Z" fill="white"/>
</g>
</svg>
