<svg width="90" height="90" viewBox="0 0 90 90" fill="none" xmlns="http://www.w3.org/2000/svg">
<path d="M31.4114 82.5825H34.5034H41.1916V90.0001H24.5269V86.0441H31.4114V82.5825Z" fill="#FBD000"/>
<path d="M57.8338 82.5825H54.7417H48.0536V90.0001H64.7183V86.0441H57.8338V82.5825Z" fill="#FBD000"/>
<path d="M6.905 50.9341V56.3736H1V45.989H3.94108V48.4615H7.37206V45.989H12.7636V48.2827V50.9341H6.905Z" fill="#FE4D00"/>
<path d="M82.3401 50.9341V56.3736H88.2451V45.989H85.3041V48.4615H81.8731V45.989H76.4815V48.2827V50.9341H82.3401Z" fill="#FE4D00"/>
<path d="M55.4056 52.4176V45.989H44.5672H33.8394V52.4176H30.8986V56.3736H27.4676V63.7912H24.0366V67.3346V71.2088H27.4676V78.1319H30.8986V82.5824H33.8751H44.4789H44.5363H55.1401H58.3464V78.1319H61.7774V71.2088H65.2084V67.3346V63.7912H61.7774V56.3736H58.3464V52.4176H55.4056Z" fill="#FE4D00"/>
<path d="M33.8638 52.4363V45.989L30.0788 45.989H18.736H12.7635V50.9597H6.88184V56.3737L11.1782 56.3737H27.611H30.8987V52.4363H33.8638Z" fill="#FBD000"/>
<path d="M58.3465 56.3737V52.4363H55.4057V45.989L59.0941 45.989H70.927H76.4817V50.9597L82.3634 50.9597V56.3737L61.5619 56.3737H58.3465Z" fill="#FBD000"/>
<path d="M41.1917 18.2966V21.2637H47.5635V18.2966H55.8959V21.2637H58.8367V25.7142H61.7776V28.6812H58.8367V31.6483H61.7776V39.5604H58.8367V43.0219H55.4673H33.6344H30.4086V39.5604H27.4678V31.6483H30.4086V29.1758H27.4678V25.7142H30.4086V21.2637H33.3495V18.2966H41.1917Z" fill="#FFCFBA"/>
<path d="M33.8396 31.6483V28.6812H37.2705V31.6483H51.9747V28.6812H55.4057V31.6483H51.9747V34.6765H37.2705V31.6483H33.8396Z" fill="#FF9567"/>
<path d="M30.4086 25.7142V21.2637H27.4677V25.7142H30.4086Z" fill="#FF9567"/>
<path d="M54.9198 43.0219H34.3297V45.9889H54.9198V43.0219Z" fill="#FF9567"/>
<path d="M69.1296 21.2637H65.6987V36.5933H69.1296V32.1428H72.0705V25.7142H69.1296V21.2637Z" fill="#FF9567"/>
<path d="M20.1156 21.2637H23.5466V36.5933H20.1156V32.1428H17.1748V25.7142H20.1156V21.2637Z" fill="#FF9567"/>
<path d="M61.7775 25.7142V21.2637H58.8367V25.7142H61.7775Z" fill="#FF9567"/>
<path d="M50.0184 18.2966H39.2311V21.2637H50.0184V18.2966Z" fill="#FF9567"/>
<path d="M37.2703 31.6484H33.9618H30.8984V39.066H33.8393V43.0221H55.4071V39.066H58.3463V31.6484H55.4071H51.9744V36.099H37.2703V31.6484Z" fill="black"/>
<path d="M37.2705 21.4692H41.6818L41.7105 28.3923H37.2992L37.2705 21.4692Z" fill="black"/>
<path d="M47.5634 28.3923V21.4692H51.9747V28.3923H47.5634Z" fill="black"/>
<path d="M30.6619 14.8352H27.4678V7.91209H30.8988V3.46154H33.7867H37.7607V0H51.4846V3.46154H55.4587H58.3466V7.91209H61.7776V14.8352H58.5834H30.6619Z" fill="#FBD000"/>
<path d="M30.4083 21.2638H27.4675V28.6813H30.8985V31.673H27.4675V36.5934H23.5464V21.2638H27.4675V14.8395H30.8985V11.3736H33.8393V7.91211H55.4055V11.3736H58.3463V14.8395H61.7773V21.2638H65.6984V36.5934H61.7773V31.673H58.3463V28.6813H61.7773V21.2638H58.3463H54.9153V18.2967H47.7651H40.9996H34.3295V21.2638H30.4083Z" fill="black"/>
<path d="M39.7212 7.9121V3.95605H49.524V7.9121H39.7212Z" fill="#FFF0AA"/>
</svg>
