<svg width="90" height="90" viewBox="0 0 90 90" fill="none" xmlns="http://www.w3.org/2000/svg">
<path d="M30.4114 82.5825H33.5034H40.1916V90.0001H23.5269V86.0441H30.4114V82.5825Z" fill="#049CD8"/>
<path d="M56.8338 82.5825H53.7417H47.0536V90.0001H63.7183V86.0441H56.8338V82.5825Z" fill="#049CD8"/>
<path d="M5.905 50.9341V56.3736H0V45.989H2.94108V48.4615H6.37206V45.989H11.7636V48.2827V50.9341H5.905Z" fill="white"/>
<path d="M81.3401 50.9341V56.3736H87.2451V45.989H84.3041V48.4615H80.8731V45.989H75.4815V48.2827V50.9341H81.3401Z" fill="white"/>
<path d="M51.9056 52.4176C51.9056 52.9608 52.0788 53.4636 52.3731 53.8736H34.8719C35.1662 53.4636 35.3394 52.9608 35.3394 52.4176V48.489H43.5672H51.9056V52.4176ZM28.9676 58.8736H29.8986H57.3464H58.2774V61.2912H28.9676V58.8736ZM60.7774 66.2912H61.7084V67.3346V68.7088H60.7774H26.4676H25.5366V67.3346V66.2912H26.4676H60.7774ZM28.9676 73.7088H58.2774V75.6319H57.3464C55.9657 75.6319 54.8464 76.7512 54.8464 78.1319V80.0824H54.1401H43.5363H43.4789H32.8751H32.3986V78.1319C32.3986 76.7512 31.2793 75.6319 29.8986 75.6319H28.9676V73.7088Z" fill="#FFF0AA" stroke="#FF9567" stroke-width="5" stroke-linejoin="round"/>
<path d="M32.8638 52.4363V45.989L29.0788 45.989H17.736H11.7635V50.9597H5.88184V56.3737L10.1782 56.3737H26.611H29.8987V52.4363H32.8638Z" fill="#43B047"/>
<path d="M57.3465 56.3737V52.4363H54.4057V45.989L58.0941 45.989H69.927H75.4817V50.9597L81.3634 50.9597V56.3737L60.5619 56.3737H57.3465Z" fill="#43B047"/>
<path d="M40.1917 18.2966V21.2637H46.5635V18.2966H54.8959V21.2637H57.8367V25.7142H60.7776V28.6812H57.8367V31.6483H60.7776V39.5604H57.8367V43.0219H54.4673H32.6344H29.4086V39.5604H26.4678V31.6483H29.4086V29.1758H26.4678V25.7142H29.4086V21.2637H32.3495V18.2966H40.1917Z" fill="#FFCFBA"/>
<path d="M32.8396 31.6483V28.6812H36.2705V31.6483H50.9747V28.6812H54.4057V31.6483H50.9747V34.6765H36.2705V31.6483H32.8396Z" fill="#FF9567"/>
<path d="M29.4086 25.7142V21.2637H26.4677V25.7142H29.4086Z" fill="#FF9567"/>
<path d="M53.9198 43.0219H33.3297V45.9889H53.9198V43.0219Z" fill="#FF9567"/>
<path d="M68.1296 21.2637H64.6987V36.5933H68.1296V32.1428H71.0705V25.7142H68.1296V21.2637Z" fill="#FF9567"/>
<path d="M19.1156 21.2637H22.5466V36.5933H19.1156V32.1428H16.1748V25.7142H19.1156V21.2637Z" fill="#FF9567"/>
<path d="M60.7775 25.7142V21.2637H57.8367V25.7142H60.7775Z" fill="#FF9567"/>
<path d="M49.0184 18.2966H38.2311V21.2637H49.0184V18.2966Z" fill="#FF9567"/>
<path d="M36.2703 31.6484H32.9618H29.8984V39.066H32.8393V43.0221H54.4071V39.066H57.3463V31.6484H54.4071H50.9744V36.099H36.2703V31.6484Z" fill="black"/>
<path d="M36.2705 21.4692H40.6818L40.7105 28.3923H36.2992L36.2705 21.4692Z" fill="black"/>
<path d="M46.5634 28.3923V21.4692H50.9747V28.3923H46.5634Z" fill="black"/>
<path d="M29.6619 14.8352H26.4678V7.91209H29.8988V3.46154H32.7867H36.7607V0H50.4846V3.46154H54.4587H57.3466V7.91209H60.7776V14.8352H57.5834H29.6619Z" fill="#43B047"/>
<path d="M29.4083 21.2638H26.4675V28.6813H29.8985V31.673H26.4675V36.5934H22.5464V21.2638H26.4675V14.8395H29.8985V11.3736H32.8393V7.91211H54.4055V11.3736H57.3463V14.8395H60.7773V21.2638H64.6984V36.5934H60.7773V31.673H57.3463V28.6813H60.7773V21.2638H57.3463H53.9153V18.2967H46.7651H39.9996H33.3295V21.2638H29.4083Z" fill="black"/>
<path d="M38.7212 7.9121V3.95605H48.524V7.9121H38.7212Z" fill="white"/>
</svg>
