<svg width="90" height="90" viewBox="0 0 90 90" fill="none" xmlns="http://www.w3.org/2000/svg">
<g clip-path="url(#clip0_102_2886)">
<path d="M33.4114 82.5825H36.5034H43.1916V90.0001H26.5269V86.0441H33.4114V82.5825Z" fill="#E52521"/>
<path d="M59.8338 82.5825H56.7417H50.0536V90.0001H66.7183V86.0441H59.8338V82.5825Z" fill="#E52521"/>
<path d="M8.905 50.9341V56.3736H3V45.989H5.94108V48.4615H9.37206V45.989H14.7636V48.2827V50.9341H8.905Z" fill="white"/>
<path d="M84.3401 50.9341V56.3736H90.2451V45.989H87.3041V48.4615H83.8731V45.989H78.4815V48.2827V50.9341H84.3401Z" fill="white"/>
<path d="M57.4056 52.4176V45.989H46.5672H35.8394V52.4176H32.8986V56.3736H29.4676V63.7912H26.0366V67.3346V71.2088H29.4676V78.1319H32.8986V82.5824H35.8751H46.4789H46.5363H57.1401H60.3464V78.1319H63.7774V71.2088H67.2084V67.3346V63.7912H63.7774V56.3736H60.3464V52.4176H57.4056Z" fill="#049CD8"/>
<path d="M35.8638 52.4363V45.989L32.0788 45.989H20.736H14.7635V50.9597H8.88184V56.3737L13.1782 56.3737H29.611H32.8987V52.4363H35.8638Z" fill="#E52521"/>
<path d="M60.3465 56.3737V52.4363H57.4057V45.989L61.0941 45.989H72.927H78.4817V50.9597L84.3634 50.9597V56.3737L63.5619 56.3737H60.3465Z" fill="#E52521"/>
<path d="M43.1917 18.2966V21.2637H49.5635V18.2966H57.8959V21.2637H60.8367V25.7142H63.7776V28.6812H60.8367V31.6483H63.7776V39.5604H60.8367V43.0219H57.4673H35.6344H32.4086V39.5604H29.4678V31.6483H32.4086V29.1758H29.4678V25.7142H32.4086V21.2637H35.3495V18.2966H43.1917Z" fill="#FFCFBA"/>
<path d="M35.8396 31.6483V28.6812H39.2705V31.6483H53.9747V28.6812H57.4057V31.6483H53.9747V34.6765H39.2705V31.6483H35.8396Z" fill="#FF9567"/>
<path d="M32.4086 25.7142V21.2637H29.4677V25.7142H32.4086Z" fill="#FF9567"/>
<path d="M56.9198 43.0219H36.3297V45.9889H56.9198V43.0219Z" fill="#FF9567"/>
<path d="M71.1296 21.2637H67.6987V36.5933H71.1296V32.1428H74.0705V25.7142H71.1296V21.2637Z" fill="#FF9567"/>
<path d="M22.1156 21.2637H25.5466V36.5933H22.1156V32.1428H19.1748V25.7142H22.1156V21.2637Z" fill="#FF9567"/>
<path d="M63.7775 25.7142V21.2637H60.8367V25.7142H63.7775Z" fill="#FF9567"/>
<path d="M52.0184 18.2966H41.2311V21.2637H52.0184V18.2966Z" fill="#FF9567"/>
<path d="M39.2703 31.6484H35.9618H32.8984V39.066H35.8393V43.0221H57.4071V39.066H60.3463V31.6484H57.4071H53.9744V36.099H39.2703V31.6484Z" fill="black"/>
<path d="M39.2705 21.4692H43.6818L43.7105 28.3923H39.2992L39.2705 21.4692Z" fill="black"/>
<path d="M49.5634 28.3923V21.4692H53.9747V28.3923H49.5634Z" fill="black"/>
<path d="M32.6619 14.8352H29.4678V7.91209H32.8988V3.46154H35.7867H39.7607V0H53.4846V3.46154H57.4587H60.3466V7.91209H63.7776V14.8352H60.5834H32.6619Z" fill="#E52521"/>
<path d="M32.4083 21.2638H29.4675V28.6813H32.8985V31.673H29.4675V36.5934H25.5464V21.2638H29.4675V14.8395H32.8985V11.3736H35.8393V7.91211H57.4055V11.3736H60.3463V14.8395H63.7773V21.2638H67.6984V36.5934H63.7773V31.673H60.3463V28.6813H63.7773V21.2638H60.3463H56.9153V18.2967H49.7651H42.9996H36.3295V21.2638H32.4083Z" fill="black"/>
<path d="M41.7212 7.9121V3.95605H51.524V7.9121H41.7212Z" fill="white"/>
</g>
<defs>
<clipPath id="clip0_102_2886">
<rect width="90" height="90" fill="white"/>
</clipPath>
</defs>
</svg>
