<svg width="500" height="500" viewBox="0 0 500 500" fill="none" xmlns="http://www.w3.org/2000/svg">
<g clip-path="url(#clip0_15_308)">
<path fill-rule="evenodd" clip-rule="evenodd" d="M67.8723 16.8116C69.1996 15.2436 70 13.2153 70 11C70 6.02944 65.9706 2 61 2C56.0294 2 52 6.02944 52 11C52 15.9706 56.0294 20 61 20C63.2153 20 65.2436 19.1996 66.8116 17.8723L69.4697 20.5303C69.7626 20.8232 70.2374 20.8232 70.5303 20.5303C70.8232 20.2374 70.8232 19.7626 70.5303 19.4697L67.8723 16.8116ZM68.5 11C68.5 15.1421 65.1421 18.5 61 18.5C56.8579 18.5 53.5 15.1421 53.5 11C53.5 6.85786 56.8579 3.5 61 3.5C65.1421 3.5 68.5 6.85786 68.5 11Z" fill="black"/>
<path fill-rule="evenodd" clip-rule="evenodd" d="M105.699 7L110.097 2.78467C111.161 1.7653 112.839 1.7653 113.903 2.78467L118.301 7H120.847C121.456 7 121.923 7.53899 121.837 8.14142L120.368 18.4243C120.157 19.9022 118.891 21 117.398 21H106.602C105.109 21 103.843 19.9022 103.632 18.4243L102.163 8.14142C102.077 7.53899 102.544 7 103.153 7H105.699ZM111.135 3.86766C111.619 3.4043 112.381 3.4043 112.865 3.86766L116.133 7H107.867L111.135 3.86766ZM103.73 8.5L105.117 18.2121C105.223 18.9511 105.855 19.5 106.602 19.5H117.398C118.145 19.5 118.777 18.9511 118.883 18.2121L120.27 8.5H103.73Z" fill="black"/>
<path fill-rule="evenodd" clip-rule="evenodd" d="M108 11.25C108.414 11.25 108.75 11.5858 108.75 12V16C108.75 16.4142 108.414 16.75 108 16.75C107.586 16.75 107.25 16.4142 107.25 16V12C107.25 11.5858 107.586 11.25 108 11.25Z" fill="black"/>
<path fill-rule="evenodd" clip-rule="evenodd" d="M112 11.25C112.414 11.25 112.75 11.5858 112.75 12V16C112.75 16.4142 112.414 16.75 112 16.75C111.586 16.75 111.25 16.4142 111.25 16V12C111.25 11.5858 111.586 11.25 112 11.25Z" fill="black"/>
<path fill-rule="evenodd" clip-rule="evenodd" d="M116 11.25C116.414 11.25 116.75 11.5858 116.75 12V16C116.75 16.4142 116.414 16.75 116 16.75C115.586 16.75 115.25 16.4142 115.25 16V12C115.25 11.5858 115.586 11.25 116 11.25Z" fill="black"/>
<path fill-rule="evenodd" clip-rule="evenodd" d="M162 10.5C163.933 10.5 165.5 8.933 165.5 7C165.5 5.067 163.933 3.5 162 3.5C160.067 3.5 158.5 5.067 158.5 7C158.5 8.933 160.067 10.5 162 10.5ZM162 12C164.761 12 167 9.76142 167 7C167 4.23858 164.761 2 162 2C159.239 2 157 4.23858 157 7C157 9.76142 159.239 12 162 12Z" fill="black"/>
<path fill-rule="evenodd" clip-rule="evenodd" d="M159 15.75C156.653 15.75 154.75 17.6528 154.75 20V21C154.75 21.4142 154.414 21.75 154 21.75C153.586 21.75 153.25 21.4142 153.25 21V20C153.25 16.8244 155.824 14.25 159 14.25H165C168.176 14.25 170.75 16.8244 170.75 20V21C170.75 21.4142 170.414 21.75 170 21.75C169.586 21.75 169.25 21.4142 169.25 21V20C169.25 17.6528 167.347 15.75 165 15.75H159Z" fill="black"/>
<circle cx="17.5" cy="17.5" r="17.5" fill="black"/>
<g clip-path="url(#clip1_15_308)">
<path d="M19.5582 23.6457L19.5423 16.8986L15.5584 16.7645L15.0836 23.4999C14.7209 23.5649 14.4503 23.8707 14.4288 24.2391L13.9701 28.3996C13.9135 28.923 14.2289 29.3811 14.6516 29.3954L19.5905 29.5592C20.0157 29.5711 20.3536 29.1423 20.3399 28.6092L20.1763 24.4423C20.186 24.0639 19.9278 23.7311 19.5586 23.6457L19.5582 23.6457Z" fill="white"/>
<path d="M21.2753 9.98934L14.6679 9.75717C14.4037 9.75009 14.1568 9.62566 13.9935 9.41828C13.6562 8.96306 13.1286 8.6881 12.5618 8.67206C11.5281 8.63846 10.6618 9.44835 10.6257 10.482L10.547 12.819C10.5153 13.8521 11.324 14.7172 12.357 14.7551C12.9217 14.7753 13.4642 14.5376 13.8331 14.1092C14.0093 13.9127 14.2653 13.8052 14.5288 13.8165C14.6758 13.8214 14.8147 13.8845 14.915 13.9918C15.0154 14.0991 15.069 14.242 15.064 14.389L15.0169 15.7883L20.1476 15.9611L20.1878 14.5494C20.1921 14.403 20.2552 14.2641 20.3619 14.1643C20.4686 14.0645 20.6115 14.011 20.7578 14.0165L24.7709 14.1517L24.7776 13.736C24.8081 12.7758 24.4572 11.8416 23.8005 11.1391C23.1438 10.4367 22.2353 10.0236 21.2753 9.98951L21.2753 9.98934Z" fill="white"/>
</g>
<path fill-rule="evenodd" clip-rule="evenodd" d="M253.324 4.08338L255.89 1.62444C256.511 1.02981 257.489 1.02981 258.11 1.62444L260.676 4.08338H262.161C262.516 4.08338 262.788 4.39779 262.738 4.74921L261.881 10.7475C261.758 11.6097 261.02 12.2501 260.149 12.2501H253.851C252.98 12.2501 252.242 11.6097 252.119 10.7475L251.262 4.74921C251.212 4.39779 251.484 4.08338 251.839 4.08338H253.324ZM256.496 2.25618C256.778 1.98589 257.223 1.98589 257.505 2.25618L259.411 4.08338H254.589L256.496 2.25618ZM252.176 4.95838L252.985 10.6238C253.047 11.0549 253.416 11.3751 253.851 11.3751H260.149C260.584 11.3751 260.954 11.0549 261.015 10.6238L261.824 4.95838H252.176Z" fill="black"/>
<path fill-rule="evenodd" clip-rule="evenodd" d="M254.667 6.5625C254.908 6.5625 255.104 6.75838 255.104 7V9.33333C255.104 9.57496 254.908 9.77083 254.667 9.77083C254.425 9.77083 254.229 9.57496 254.229 9.33333V7C254.229 6.75838 254.425 6.5625 254.667 6.5625Z" fill="black"/>
<path fill-rule="evenodd" clip-rule="evenodd" d="M257 6.5625C257.242 6.5625 257.437 6.75838 257.437 7V9.33333C257.437 9.57496 257.242 9.77083 257 9.77083C256.758 9.77083 256.562 9.57496 256.562 9.33333V7C256.562 6.75838 256.758 6.5625 257 6.5625Z" fill="black"/>
<path fill-rule="evenodd" clip-rule="evenodd" d="M259.333 6.5625C259.575 6.5625 259.771 6.75838 259.771 7V9.33333C259.771 9.57496 259.575 9.77083 259.333 9.77083C259.092 9.77083 258.896 9.57496 258.896 9.33333V7C258.896 6.75838 259.092 6.5625 259.333 6.5625Z" fill="black"/>
<path d="M200 7H224M224 7L217 0M224 7L217 14" stroke="#3D3D3F" stroke-width="1.5"/>
<path d="M303.898 12V6.53514H305.675L305.939 4.39547H303.898V3.03259C303.898 2.41516 304.064 1.99243 304.918 1.99243H306V0.0847928C305.473 0.0262443 304.944 -0.00202566 304.415 0.000112795C302.844 0.000112795 301.765 0.994936 301.765 2.82122V4.39147H300V6.53114H301.769V12H303.898Z" fill="#474747"/>
<path d="M361.682 2.06975C361.528 1.67138 361.292 1.30961 360.99 1.00759C360.688 0.705576 360.326 0.469972 359.928 0.31586C359.461 0.140842 358.969 0.0462069 358.471 0.0359839C357.829 0.00799638 357.626 0 355.999 0C354.371 0 354.163 -6.70254e-08 353.526 0.0359839C353.029 0.0456842 352.537 0.140339 352.071 0.31586C351.673 0.469792 351.311 0.705333 351.008 1.00737C350.706 1.30941 350.471 1.67127 350.317 2.06975C350.141 2.53595 350.047 3.02855 350.037 3.52643C350.009 4.16748 350 4.37072 350 5.99867C350 7.62594 350 7.83319 350.037 8.4709C350.047 8.96935 350.141 9.46113 350.317 9.92825C350.471 10.3266 350.707 10.6883 351.009 10.9903C351.311 11.2923 351.673 11.5279 352.072 11.6821C352.536 11.8642 353.029 11.9656 353.528 11.982C354.169 12.01 354.373 12.0187 356 12.0187C357.627 12.0187 357.836 12.0187 358.472 11.982C358.97 11.9719 359.463 11.8775 359.929 11.7028C360.327 11.5483 360.689 11.3125 360.991 11.0104C361.293 10.7083 361.529 10.3466 361.683 9.94825C361.859 9.48179 361.953 8.99 361.963 8.49156C361.991 7.85051 362 7.64727 362 6.01932C362 4.39138 362 4.18481 361.963 3.54709C361.955 3.04216 361.86 2.54237 361.682 2.06975V2.06975ZM360.871 8.42159C360.866 8.80562 360.796 9.18608 360.663 9.54642C360.563 9.80555 360.41 10.0409 360.214 10.2372C360.017 10.4336 359.782 10.5867 359.522 10.6866C359.166 10.8188 358.79 10.8889 358.41 10.8938C357.777 10.9231 357.598 10.9305 355.975 10.9305C354.35 10.9305 354.184 10.9305 353.539 10.8938C353.159 10.8892 352.783 10.8191 352.427 10.6866C352.167 10.5873 351.93 10.4345 351.733 10.2381C351.536 10.0417 351.382 9.80605 351.281 9.54642C351.15 9.18995 351.08 8.81398 351.074 8.43425C351.046 7.8012 351.039 7.62261 351.039 5.99933C351.039 4.37539 351.039 4.20946 351.074 3.56375C351.078 3.17993 351.149 2.7997 351.281 2.43958C351.485 1.91382 351.901 1.5 352.427 1.29876C352.783 1.16691 353.159 1.09682 353.539 1.09151C354.173 1.06286 354.351 1.05486 355.975 1.05486C357.599 1.05486 357.765 1.05486 358.41 1.09151C358.79 1.09609 359.166 1.1662 359.522 1.29876C359.782 1.39889 360.017 1.55211 360.213 1.74858C360.41 1.94504 360.563 2.18041 360.663 2.43958C360.794 2.79606 360.864 3.17203 360.871 3.55175C360.899 4.18547 360.906 4.36339 360.906 5.98734C360.906 7.61062 360.906 7.78521 360.878 8.42226H360.871V8.42159Z" fill="#474747"/>
<path d="M356.081 3C355.264 3 354.48 3.32464 353.902 3.90249C353.325 4.48035 353 5.26409 353 6.0813C353 6.89851 353.325 7.68225 353.902 8.2601C354.48 8.83796 355.264 9.16259 356.081 9.16259C356.899 9.16259 357.682 8.83796 358.26 8.2601C358.838 7.68225 359.163 6.89851 359.163 6.0813C359.163 5.26409 358.838 4.48035 358.26 3.90249C357.682 3.32464 356.899 3 356.081 3V3ZM356.081 8.08241C355.55 8.08241 355.041 7.87151 354.666 7.4961C354.29 7.12069 354.08 6.61154 354.08 6.08063C354.08 5.54973 354.29 5.04057 354.666 4.66516C355.041 4.28976 355.55 4.07885 356.081 4.07885C356.612 4.07885 357.121 4.28976 357.497 4.66516C357.872 5.04057 358.083 5.54973 358.083 6.08063C358.083 6.61154 357.872 7.12069 357.497 7.4961C357.121 7.87151 356.612 8.08241 356.081 8.08241V8.08241Z" fill="#474747"/>
<path d="M412.736 1.415C412.662 1.14357 412.517 0.896024 412.316 0.697014C412.115 0.498004 411.865 0.354468 411.591 0.280692C410.574 0.00450089 406.504 4.87928e-06 406.504 4.87928e-06C406.504 4.87928e-06 402.436 -0.00449139 401.418 0.259496C401.144 0.336667 400.894 0.482233 400.693 0.68222C400.493 0.882207 400.347 1.1299 400.271 1.40152C400.003 2.40737 400 4.49358 400 4.49358C400 4.49358 399.997 6.59006 400.264 7.58564C400.413 8.13609 400.852 8.57094 401.409 8.71931C402.436 8.9955 406.495 8.99999 406.495 8.99999C406.495 8.99999 410.564 9.00449 411.581 8.74115C411.856 8.6675 412.106 8.52429 412.307 8.32569C412.509 8.12709 412.654 7.87996 412.729 7.60876C412.998 6.60355 413 4.51798 413 4.51798C413 4.51798 413.013 2.42086 412.736 1.415V1.415ZM405.203 6.42628L405.206 2.57244L408.588 4.50257L405.203 6.42628V6.42628Z" fill="#474747"/>
</g>
<defs>
<clipPath id="clip0_15_308">
<rect width="500" height="500" fill="white"/>
</clipPath>
<clipPath id="clip1_15_308">
<rect width="22" height="22" fill="white" transform="translate(17.5237 2.45239) rotate(46.9289)"/>
</clipPath>
</defs>
</svg>
